<?xml version="1.0" encoding="utf-8"?>
<!-- Generator: Adobe Illustrator 24.3.0, SVG Export Plug-In . SVG Version: 6.00 Build 0)  -->
<svg version="1.1" id="Layer_1" xmlns="http://www.w3.org/2000/svg" xmlns:xlink="http://www.w3.org/1999/xlink" x="0px" y="0px"
	 width="386.1px" height="386px" viewBox="0 0 386.1 386" style="enable-background:new 0 0 386.1 386;" xml:space="preserve">
<style type="text/css">
	.st0{fill:#FAE300;}
	.st1{fill:#391B1B;}
</style>
<circle class="st0" cx="193.1" cy="192.9" r="193.1"/>
<g>
	<path class="st1" d="M164.9,158.4l-9.4,26.8h19.1l-9.4-26.8C165.2,158.4,165,158.4,164.9,158.4z"/>
	<path class="st1" d="M193,64.4c-77.3,0-140,49.5-140,110.7c0,39.8,26.5,74.6,66.4,94.1c-2.9,11-10.6,39.6-12.1,45.8
		c-1.9,7.6,2.8,7.5,5.9,5.4c2.4-1.6,38.4-26,53.9-36.6c8.4,1.2,17.1,1.9,26,1.9c77.3,0,140-49.5,140-110.7
		C333.1,113.9,270.3,64.4,193,64.4z M124.1,205.4c0,1.8-0.7,3.6-2,4.8c-1.2,1.2-3,2-4.8,2h-1.5c-1.8,0-3.6-0.7-4.8-2
		c-1.3-1.3-2-3-2-4.8v-49H95.8c-3.8,0-7-3.1-7-7c0-3.8,3.1-7,7-7h40.9c3.8,0,7,3.1,7,7s-3.1,7-7,7h-12.5V205.4z M191.1,211.9
		c-3.6,1.2-7.4-0.7-8.6-4.1l-3.5-9.9h-27.9l-3.5,9.9c-1.2,3.6-5.1,5.4-8.6,4.1c-3.5-1.2-5.4-5.1-4.1-8.6l20.1-53.8
		c0.1-0.3,0.2-0.7,0.4-0.9c0.8-4,4.9-7,9.9-7c4.5,0,8.3,2.5,9.6,5.9l0.1,0.1l20.4,55.8C196.5,206.7,194.7,210.6,191.1,211.9z
		 M235.1,211.7h-27.8c-3.5,0-6.3-2.8-6.3-6.3c0-0.4,0.1-0.8,0.1-1.2c-0.1-0.4-0.1-0.8-0.1-1.2v-54c0-4.2,3.4-7.5,7.5-7.5
		c4.2,0,7.5,3.4,7.5,7.5v50.1h19.1c3.5,0,6.3,2.8,6.3,6.3C241.4,208.9,238.6,211.7,235.1,211.7z M294.5,210.9
		c-3,2.2-7.3,1.7-9.4-1.4L265,183.2l-4.3,4.3v17.2c0,4.2-3.4,7.5-7.5,7.5c-4.2,0-7.5-3.4-7.5-7.5V149c0-4.2,3.4-7.5,7.5-7.5
		c4.2,0,7.5,3.4,7.5,7.5v19.7l23.7-23.7c2.6-2.6,6.8-2.6,9.4,0c2.6,2.6,2.6,6.8,0,9.4l-19.1,19.1l21.2,27.8
		C298.2,204.4,297.6,208.6,294.5,210.9z"/>
</g>
</svg>
