<?xml version="1.0" encoding="utf-8"?>
<!-- Generator: Adobe Illustrator 26.5.3, SVG Export Plug-In . SVG Version: 6.00 Build 0)  -->
<svg version="1.1" id="레이어_1" xmlns="http://www.w3.org/2000/svg" xmlns:xlink="http://www.w3.org/1999/xlink" x="0px"
	 y="0px" viewBox="0 0 612 101" style="enable-background:new 0 0 612 101;" xml:space="preserve">
<style type="text/css">
	.st0{fill:#B48F1A;}
	.st1{fill:#0B4FA2;}
	.st2{fill:#999999;}
</style>
<g>
	<path class="st0" d="M38.2,53.6v-9h-3.6l-8.4-12.3l-7.5,4.5l13.8,11.1c0.3-0.9,1.2-1.5,1.5-2.4v8.4C34.6,53.6,38.2,53.6,38.2,53.6z
		"/>
	<rect x="40" y="59.3" class="st0" width="3.9" height="9"/>
	<polygon class="st0" points="40,52.4 34.9,56.9 34.9,68.6 38.5,68.6 38.5,59 44.5,53.6 44.5,44.6 40,44.6 	"/>
	<path class="st0" d="M39.7,41l-5.1-13.8L28,31.4l8.1,12C37.3,42.2,38.5,41.6,39.7,41z"/>
	<path class="st0" d="M41.8,40.1c1.2-0.3,2.1-0.6,3.3-0.6V20.6l-8.7,5.1L41.8,40.1z"/>
	<path class="st0" d="M57.7,44.6c0.6,0.9,1.5,2.1,2.1,3l13.8-11.1l-7.2-4.2L57.7,44.6z"/>
	<path class="st0" d="M57.7,26.9l-5.1,13.8c1.2,0.6,2.4,1.5,3.6,2.4l8.1-12L57.7,26.9z"/>
	<path class="st0" d="M47.2,20.6v18.9c1.2,0,2.4,0.3,3.3,0.6l5.1-14.4L47.2,20.6z"/>
	<g>
		<path class="st1" d="M140-35.8h-28v-29.9h9.7v7.8h8.3v-7.8h9.5v5.2h8.5v-9.1h9.9v42.3h-9.9v-13.2h-8.5v4.7L140-35.8L140-35.8z
			 M159.8-20.9v7.8h-40v-18.4h9.9v10.5h30.1L159.8-20.9L159.8-20.9z M130.3-50.6H122v6.8h8.3V-50.6z M140-52.9v4.5h8.5v-4.5H140z"/>
		<path class="st1" d="M198.3-32.5c-11.8,2.1-25,2.5-34.8,2.7l-1.2-7.4c3.9,0,8.2,0,12.8-0.2v-2.7c-5.8-1-9.3-4.1-9.3-8.4
			c0-5.4,5.6-8.7,14.2-8.7s14.2,3.5,14.2,8.7c0,4.5-3.7,7.4-9.3,8.4v2.1c4.1-0.2,8.4-0.8,12.4-1.2L198.3-32.5z M196.1-58.7h-32.2
			v-6.8h11.3V-70h9.9v4.5h11.1L196.1-58.7L196.1-58.7z M180-20.9h31.5v7.8h-41.4v-14.6h9.9L180-20.9L180-20.9z M175-48.6
			c0,1.7,1.7,2.1,4.9,2.1c3.1,0,4.9-0.6,4.9-2.1c0-1.6-1.6-2.5-4.7-2.5C176.9-51.2,175-50.4,175-48.6z M215.9-51.6v8.2h-6.6V-25
			h-9.9v-44.9h9.9v18.1C209.3-51.6,215.9-51.6,215.9-51.6z"/>
		<path class="st1" d="M268.8-42v7.8h-52.2V-42h21.2v-3.7h-14.6v-22.5h9.9v4.5h19.4v-4.5h9.9v22.5h-14.8v3.7H268.8z M222.4-31.2
			h40.2v18.8h-9.9v-11.3h-30.1v-7.6L222.4-31.2L222.4-31.2z M232.8-53.3h19.4v-3.1h-19.4L232.8-53.3L232.8-53.3z"/>
		<path class="st1" d="M329.5-69.8v31.5h-9.9v-11.1h-8.5v9.5h-28v-27h9.9v6.4h8.4v-6.4h9.5v9.5h8.5v-12.4L329.5-69.8L329.5-69.8z
			 M319.6-35.8h9.9v23.1h-39v-23.1h9.9v4.1h19.4v-4.1H319.6z M301.4-53.1H293v5.4h8.4V-53.1z M319.6-24.4h-19.4v3.7h19.4V-24.4z"/>
		<path class="st1" d="M386.4-30.6h-21.4v18.1h-9.9v-18.1h-20.8v-7.8h52L386.4-30.6L386.4-30.6z M380.2-43.6h-40.4v-23.5h40.4V-43.6
			z M370.7-59.5h-20.8v8.2h20.8V-59.5z"/>
		<path class="st1" d="M409.7-58.2c0,10.5,2.7,20.8,12.4,25.8l-5.8,7.8c-5.6-2.9-9.3-7.8-11.5-13.8c-2.5,6.6-6.4,12-12.8,15
			l-5.8-8.2c10.3-4.7,13.4-15.7,13.4-26.4v-7.6h10.1L409.7-58.2L409.7-58.2z M440.8-40.1h-7.6v28h-9.9v-57.7h9.9v21.6h7.6V-40.1z"/>
		<path class="st1" d="M474.2-58.2c0,10.5,2.7,20.8,12.4,25.8l-5.8,7.8c-5.6-2.9-9.3-7.8-11.5-13.8c-2.5,6.6-6.4,12-12.8,15
			l-5.8-8.2c10.3-4.7,13.4-15.7,13.4-26.4v-7.6h10.1L474.2-58.2L474.2-58.2z M505.1-40.1h-7.6v28h-9.9v-57.7h9.9v21.6h7.6V-40.1
			L505.1-40.1z"/>
		<path class="st1" d="M557.3-30.6h-21.4v18.1H526v-18.1h-20.8v-7.8h52L557.3-30.6L557.3-30.6z M551.5-43.6h-40.4v-23.5h40.4V-43.6z
			 M541.6-59.5h-20.8v8.2h20.8V-59.5z"/>
		<path class="st1" d="M610.7-26.5v7.8h-52v-7.8h20.8v-12.2h9.9v12.2L610.7-26.5L610.7-26.5z M605.1-36.4
			c-10.5-1.7-17.1-6.8-20.8-13.2c-3.7,6.4-10.3,11.5-20.8,13.2l-3.9-8.2c14.8-2.1,19.6-11.3,19.6-18.4v-4.1h10.5v3.9
			c0,7.4,4.9,16.1,19.6,18.4L605.1-36.4z"/>
	</g>
	<path class="st0" d="M91,39.8c-1.5-5.7-7.5-5.7-7.5-5.7C82,28.4,75.7,29,75.7,29c-2.4-4.8-8.4-3-8.4-3c-0.3-5.7-5.7-6.3-5.7-6.3
		c-1.2-5.4-7.2-5.4-7.2-5.4c-0.9-2.1-4.2-5.1-8.1-5.1c-3.9,0-7.5,3-8.1,5.1c0,0-6,0-7.2,5.4c0,0-5.4,0.6-5.7,6.3c0,0-6-1.5-8.4,3
		c0,0-6.3-0.6-7.8,5.1c0,0-6.3,0.3-7.5,5.7c-1.5,5.7,2.7,9,2.7,9s-2.1,5.4,3.3,8.4c0,0-0.9,5.1,4.8,6.9c0,0-3.9,4.5,0.3,8.4
		c0,0-2.4,5.7,2.4,8.4c0,0-1.5,5.4,3.9,9c4.5,3,9.9,0.3,9.9,0.3s4.5,3.9,9.3-0.6c0,0,5.7,3,8.7-2.1c3,5.1,8.7,2.1,8.7,2.1
		c4.8,4.2,9.3,0.6,9.3,0.6s5.1,3,9.9-0.3c5.1-3.3,3.9-9,3.9-9c4.8-3,2.4-8.4,2.4-8.4c4.2-3.9,0.3-8.4,0.3-8.4
		c5.7-1.5,4.8-6.9,4.8-6.9c5.1-3,3.3-8.4,3.3-8.4S92.8,45.5,91,39.8z M84.4,49.1c0,0,1.8,4.8-3,7.2c0,0,0.6,4.8-4.2,6.6
		c0,0,3.3,4.2-0.6,7.8c0,0,2.4,4.5-2.1,7.2c0,0,0.9,5.1-3.3,8.1c-4.8,3.3-9,0.6-9,0.6s-3.9,3.3-8.4-0.3c0,0-3,1.5-6.6-0.6l28.5-16.5
		v-30L60.4,50.3c0.3,0.6,0.3,1.5,0.6,2.4c1.5-0.6,3.9-2.1,6.3-3c3.9-1.5,4.8-1.5,4.8-1.2c0.3,0.3-0.6,3.9-2.7,7.8
		c-2.1,3.9-3.3,4.8-4.5,2.1c-1.2-2.4-1.5-3.6-1.8-4.2c-0.3-0.6-0.6-0.6-1.8,0.3c0,0.3,0,0.3,0,0.6v5.1V62c0,2.4-0.9,4.5-2.4,6.3
		L55,57.2h3.6v-3.6h-5.4v-1.5H58v-3.6h-4.8v-4.2h-3.6v4.2h-3.9v3.6h3.9v1.5h-4.5v3.6H49l-3.9,12h13.5c-1.5,1.5-3.9,2.4-6.6,2.4H40.6
		c-5.1,0-9.6-4.2-9.6-9.6v-1.8v-5.1c0-0.3,0-0.3,0-0.6c-1.2-0.6-1.5-0.9-1.8-0.3s-0.6,1.5-1.8,4.2c-1.2,2.4-2.4,1.8-4.5-2.1
		c-2.1-3.9-3-7.5-2.7-7.8c0.3-0.3,1.2-0.6,4.8,1.2c2.4,1.2,4.8,2.1,6.3,3c0.3-0.9,0.3-1.5,0.6-2.4L16.6,39.2v30l28.5,16.5
		c-3.3,2.1-6.6,0.6-6.6,0.6c-4.5,3-8.7,0-8.7,0s-4.2,3-9-0.6c-3.9-3-3.3-8.1-3.3-8.1c-4.2-2.4-2.1-7.2-2.1-7.2
		c-3.9-3.3-0.3-7.5-0.3-7.5c-4.8-1.8-4.2-6.6-4.2-6.6c-4.8-2.4-3-7.2-3-7.2S4,45.5,5.5,40.4c1.5-4.8,7.2-4.8,7.2-4.8
		c1.8-5.1,7.2-4.5,7.2-4.5c2.1-4.2,7.5-3,7.5-3c0.3-4.8,5.1-5.7,5.1-5.7c0.6-4.8,6.3-4.8,6.3-4.8c0.3-0.9,2.4-4.8,7.5-4.8
		c5.1,0,7.2,3.9,7.5,4.8c0,0,5.4-0.3,6.3,4.8c0,0,4.8,0.6,5.1,5.7c0,0,5.7-1.2,7.5,3c0,0,5.4-0.6,6.9,4.2c0,0,5.4,0.3,7.2,4.8
		C88.3,45.2,84.4,49.1,84.4,49.1z M54.4,65.3h-4.8l2.4-7.2L54.4,65.3z"/>
	<g>
		<path class="st2" d="M126.9,71.9c0,9.2-2.6,16.8-12,22l-2.6-3.3c6.6-3.8,9.4-8.7,10.2-15.1h-8.3v-3.8h12.8L126.9,71.9L126.9,71.9z
			 M140.8,67.9v32.8h-4.5V84h-3.1v15.1h-4.5V68.8h4.5v11.6h3.1V67.9H140.8L140.8,67.9z"/>
		<path class="st2" d="M153.1,86.6c-5,0-9-3.5-9-8.3c0-4.7,3.8-8.3,9-8.3s9,3.5,9,8.3C162.1,83,158.1,86.6,153.1,86.6z M153.1,82.8
			c2.4,0,4.5-1.4,4.5-4.3c0-2.8-1.9-4-4.5-4c-2.4,0-4.5,1.4-4.5,4.2C148.6,80.9,150.8,82.8,153.1,82.8z M172,96.5v3.8h-22.7V89.2
			h4.7v7.1H172L172,96.5L172,96.5z M171.1,91.8h-4.7V67.9h4.7V91.8z"/>
		<path class="st2" d="M188.1,91.5c2.6,0,5.4-0.2,8-0.7l0.2,3.3c-7.1,1.2-14.9,1.4-20.5,1.4l-0.7-3.8c2.4,0,5.4,0,8,0v-3.1
			c-3.5-0.7-5.9-3.1-5.9-5.9c0-3.5,3.3-6.4,8-6.4c4.7,0,8,2.4,8,6.4c0,3.1-2.4,5.4-5.7,5.9v2.6h0.5V91.5L188.1,91.5z M195.4,75.2
			h-19.6v-3.5h7.6v-3.8h4.7v3.5h7.6v3.8H195.4z M185.7,85.4c2.1,0,3.5-0.9,3.5-2.6c0-1.9-1.4-2.6-3.5-2.6c-2.1,0-3.5,0.9-3.5,2.6
			C181.7,84.4,183.4,85.4,185.7,85.4z M202.3,67.9v32.8h-4.7V67.9H202.3z"/>
		<path class="st2" d="M220,86.1c-2.6-1.2-4.5-3.1-5.7-5.4c-1.2,2.6-3.3,5-6.4,6.6l-2.4-3.5c4.5-2.1,6.4-5.9,6.4-9.9V70h4.5v3.8
			c0,3.5,1.9,7.1,6.4,9L220,86.1z M234.1,94.6c0,3.8-4.5,6.4-11.3,6.4s-11.3-2.4-11.3-6.4s4.5-6.4,11.3-6.4
			C229.9,88.4,234.1,90.8,234.1,94.6z M229.4,94.6c0-1.9-2.4-2.6-6.6-2.6s-6.6,0.9-6.6,2.6c0,1.7,2.4,2.6,6.6,2.6
			C227,97.4,229.4,96.5,229.4,94.6z M227,87h-4.5V68.6h4.5v7.6h2.6v-8h4.5v20.3h-4.5v-8.3H227V87z"/>
		<path class="st2" d="M254.4,87.5c-3.5-1.2-5.9-3.5-7.6-6.6c-1.4,3.3-4.3,5.9-8,7.1l-2.4-3.8c5.4-1.9,7.8-5.9,7.8-10.2v-0.2h-6.6
			V70h17.7v3.8H249V74c0,3.8,2.4,8,7.6,9.4L254.4,87.5z M265.3,96.5v3.8h-22.4V89.9h4.7v6.6H265.3L265.3,96.5z M259.9,76.4v-8.7h4.7
			v24.1h-4.7V80.2h-5v-3.8L259.9,76.4L259.9,76.4z"/>
		<path class="st2" d="M298.1,84.2v3.5h-12.3v5.7h-4.7v-5.7h-13.2v-3.5H298.1z M276.4,96.5h18.4v3.8h-22.9v-9.4h4.7v5.7H276.4z
			 M294.1,81.6h-22.4V69.3h22.4V81.6z M289.6,72.9h-13.2v4.7h13.2V72.9z"/>
		<path class="st2" d="M333.3,67.9v18.2h-4.7v-6.9h-5.9v5.7h-15.6V69.3h4.7v4.5h6.4v-4.3h4.5v5.9h5.9v-7.8h4.7V67.9z M328.6,87.3
			h4.7v13.2h-21.7V87.3h4.7v3.1h12.5v-3.1H328.6z M318,77.4h-6.4v3.8h6.4V77.4z M328.6,93.9h-12.5v2.6h12.5V93.9z"/>
		<path class="st2" d="M366.6,89.9h-12.5v10.6h-4.7V89.9h-12.5v-3.8h29.8L366.6,89.9L366.6,89.9z M363.1,82.8h-22.9V69.3h22.9V82.8z
			 M358.6,73.1h-13.5v6.1h13.5V73.1z"/>
		<path class="st2" d="M380.1,75.2c0,5.9,2.4,12,7.8,14.6l-3.1,3.5c-3.5-1.9-5.7-5-7.1-9c-1.4,4.2-3.8,7.8-7.8,9.4l-2.6-3.8
			c5.7-2.6,8-9,8-14.9v-4.7h4.7V75.2L380.1,75.2z M398.5,84.4h-4.7v16.3h-4.7V67.7h4.7v12.5h4.7V84.4z"/>
		<path class="st2" d="M417.6,75.2c0,5.9,2.4,12,7.8,14.6l-3.1,3.5c-3.5-1.9-5.7-5-7.1-9c-1.4,4.2-3.8,7.8-7.8,9.4l-2.6-3.8
			c5.7-2.6,8-9,8-14.9v-4.7h4.7V75.2L417.6,75.2z M436.1,84.4h-4.7v16.3h-4.7V67.7h4.7v12.5h4.7V84.4z"/>
		<path class="st2" d="M466.3,89.9h-12.5v10.6H449V89.9h-12.5v-3.8h29.8L466.3,89.9L466.3,89.9z M462.7,82.8h-22.9V69.3h22.9V82.8
			L462.7,82.8z M458.3,73.1h-13.5v6.1h13.5V73.1z"/>
		<path class="st2" d="M497.7,93.2V97h-29.8v-3.8h12.5v-7.6h4.7v7.6H497.7z M494.6,87c-5.7-0.9-10.2-4.3-12.3-8
			c-2.1,4.2-6.4,7.1-12.3,8l-1.9-3.8c7.6-1.2,11.6-6.4,11.6-10.6v-2.4h5v2.4c0,4.7,4.3,9.4,11.6,10.6L494.6,87z"/>
	</g>
	<g>
		<path class="st1" d="M156.5,1.9v30.8h-9.7V21.9h-8.4v9.4h-27.3V4.6h9.6v6.3h8.2V4.7h9.5v9.5h8.4V1.8L156.5,1.9z M146.9,34.9h9.6
			v22.6h-38.1V34.9h9.6V39h18.9V34.9z M128.9,18.3h-8.2v5.4h8.2V18.3z M146.9,46.3H128v3.7h18.9V46.3z"/>
		<path class="st1" d="M213.3,40.3h-20.8v17.9h-9.7V40.3h-20.4v-7.6h50.9V40.3z M207.5,27.5h-39.6V4.4h39.6V27.5z M198,12h-20.5v8
			H198V12z"/>
		<path class="st1" d="M237.5,13c0,10.3,2.7,20.5,12.3,25.1l-5.8,7.7c-5.6-2.8-9.2-7.6-11.4-13.6c-2.3,6.4-6.4,11.7-12.4,14.6
			l-5.8-7.9c10.1-4.6,13.3-15.4,13.3-26V6h9.8V13z M267.9,30.9h-7.6v27.3h-9.7V1.9h9.7v21.1h7.6V30.9z"/>
		<path class="st1" d="M310.5,34c-6.1-1.7-10-5.1-12.5-9.3c-2.5,5.2-6.7,9.4-13.3,11.4l-4.9-7.6c8.9-2.9,12.3-9.3,12.8-15.4h-10.4
			V5.4H313V13h-10.2c0.6,5.5,3.8,10.9,12.4,13.4L310.5,34z M326.4,46.9c0,7.1-7.6,11.3-19.4,11.3c-11.8,0-19.3-4.2-19.3-11.3
			c0-7.1,7.6-11.3,19.3-11.3C318.9,35.7,326.4,39.9,326.4,46.9z M316.8,46.9c0-2.8-3.2-3.8-9.7-3.8c-6.5,0-9.7,1.1-9.7,3.8
			c0,2.8,3.2,3.9,9.7,3.9C313.6,50.8,316.8,49.7,316.8,46.9z M332.8,14.1v7.9h-7v13H316V1.9h9.7v12.2H332.8z"/>
		<path class="st1" d="M367.5,13.7h-33.1V6.2h11.7V1.5h9.7v4.7h11.7V13.7z M351,35.9c-8.2,0-14-4.3-14-10.5c0-6.2,5.9-10.5,14-10.5
			c8.2,0,14,4.3,14,10.5C365,31.6,359.1,35.9,351,35.9z M341.1,39.1h38.1v19h-9.7V46.8h-28.4V39.1z M351,28.6c2.8,0,4.7-1,4.7-3.2
			c0-2.3-1.9-3.2-4.7-3.2c-2.8,0-4.7,1-4.7,3.2C346.2,27.7,348.1,28.6,351,28.6z M386.2,23.7h-7v13.6h-9.7V1.8h9.7v14h7V23.7z"/>
		<path class="st1" d="M438.8,29.4V37h-19.7v8.5h-9.7V37h-21.5v-7.6H438.8z M389.7,19.9c10.9-1.1,15.2-4.9,16.6-8.3h-13.7V4h41.8
			v7.6h-13.7c1.2,3.4,5.6,7.3,16.5,8.3l-3.5,7.7c-11-1.1-17.3-5.3-20.2-10.7c-2.8,5.3-9.1,9.5-20.2,10.7L389.7,19.9z M403.2,49.7
			h30.1v7.6h-39.8V41.1h9.7V49.7z"/>
		<path class="st1" d="M475,13c0,10.3,2.7,20.5,12.3,25.1l-5.8,7.7c-5.6-2.8-9.2-7.6-11.4-13.6c-2.3,6.4-6.4,11.7-12.4,14.6
			l-5.8-7.9c10.1-4.6,13.3-15.4,13.3-26V6h9.8V13z M505.3,30.9h-7.6v27.3h-9.7V1.9h9.7v21.1h7.6V30.9z"/>
		<path class="st1" d="M557.6,40.3h-20.8v17.9h-9.7V40.3h-20.4v-7.6h50.9V40.3z M551.8,27.5h-39.6V4.4h39.6V27.5z M542.2,12h-20.5v8
			h20.5V12z"/>
		<path class="st1" d="M611.1,44.1v7.7h-51v-7.7h20.3V32.2h9.7v11.9H611.1z M605.7,34.6c-10.3-1.7-16.9-6.7-20.5-13
			c-3.6,6.4-10.2,11.3-20.5,13l-3.9-8c14.3-2.2,19.2-11,19.2-18v-4h10.4v4c0,7.2,4.7,15.8,19.3,18L605.7,34.6z"/>
	</g>
</g>
</svg>
